# File created by Blade
# Date/Time:  Thu Jan 15 19:03:44 2015
#---------------------------------------------------------
:version 1.10
:name HOM
:units
  mass 1.0
  length 1.000000
  angle deg
:documentation
     Acclaim Skeleton File
:root
   axis xyz
   order TX TY TZ RX RY RZ
   position 0.000000 0.000000 0.000000
   orientation 0 0 0
:bonedata
   begin
      id 1
      name Spine_dum
      direction 0.000000 1.000000 0.000000
      length 4.354460
      axis 0.0 0.0 0.0 xyz
   end
   begin
      id 2
      name LeftUpLeg_dum
      direction 1.000000 0.000000 0.000000
      length 4.291077
      axis 0.0 0.0 0.0 xyz
   end
   begin
      id 3
      name RightUpLeg_dum
      direction -1.000000 0.000000 0.000000
      length 4.291077
      axis 0.0 0.0 0.0 xyz
   end
   begin
      id 4
      name Spine
      direction 0.000000 1.000000 0.000000
      length 0.000000
      axis 0.0 0.0 0.0 xyz
      dof rx ry rz
   end
   begin
      id 5
      name Spine_dum1
      direction 0.000000 1.000000 0.000000
      length 16.581769
      axis 0.0 0.0 0.0 xyz
   end
   begin
      id 6
      name Spine_dum2
      direction 0.000000 1.000000 0.000000
      length 12.903700
      axis 0.0 0.0 0.0 xyz
   end
   begin
      id 7
      name Spine_dum3
      direction 0.000000 1.000000 0.000000
      length 12.903700
      axis 0.0 0.0 0.0 xyz
   end
   begin
      id 8
      name Head
      direction 0.000000 1.000000 0.000000
      length 4.527550
      axis 0.0 0.0 0.0 xyz
      dof rx ry rz
   end
   begin
      id 9
      name LeftShoulder
      direction 1.000000 0.000000 0.000000
      length 6.942033
      axis 0.0 0.0 -90.0 xyz
      dof rx ry rz
   end
   begin
      id 10
      name LeftArm
      direction 1.000000 0.000000 0.000000
      length 11.010391
      axis 0.0 0.0 -90.0 xyz
      dof rx ry rz
   end
   begin
      id 11
      name LeftForeArm
      direction 1.000000 0.000000 0.000000
      length 8.054994
      axis 0.0 0.0 -90.0 xyz
      dof rz ry rx
   end
   begin
      id 12
      name LeftHand
      direction 0.000000 0.000000 0.000000
      length 0.000000
      axis 0.0 0.0 -90.0 xyz
      dof rx ry rz
   end
   begin
      id 13
      name LeftHand_dum1
      direction 0.000000 0.000000 0.000000
      length 0.000000
      axis 0.0 0.0 -90.0 xyz
   end
   begin
      id 14
      name LeftHand_dum2
      direction 1.000000 0.000000 0.000000
      length 3.937000
      axis 0.0 0.0 -90.0 xyz
   end
   begin
      id 15
      name LeftHandThumb1
      direction 0.000000 0.000000 1.000000
      length 3.937000
      axis 0.0 0.0 -90.0 xyz
      dof rx ry rz
   end
   begin
      id 16
      name RightShoulder
      direction -1.000000 0.000000 0.000000
      length 6.942033
      axis 0.0 0.0 90.0 xyz
      dof rx ry rz
   end
   begin
      id 17
      name RightArm
      direction -1.000000 0.000000 0.000000
      length 11.010391
      axis 0.0 0.0 90.0 xyz
      dof rx ry rz
   end
   begin
      id 18
      name RightForeArm
      direction -1.000000 0.000000 0.000000
      length 8.054994
      axis 0.0 0.0 90.0 xyz
      dof rz ry rx
   end
   begin
      id 19
      name RightHand
      direction 0.000000 0.000000 0.000000
      length 0.000000
      axis 0.0 0.0 90.0 xyz
      dof rx ry rz
   end
   begin
      id 20
      name RightHand_dum1
      direction 0.000000 0.000000 0.000000
      length 0.000000
      axis 0.0 0.0 90.0 xyz
   end
   begin
      id 21
      name RightHand_dum2
      direction -1.000000 0.000000 0.000000
      length 3.937000
      axis 0.0 0.0 90.0 xyz
   end
   begin
      id 22
      name RightHandThumb1
      direction 0.000000 0.000000 1.000000
      length 3.937000
      axis 0.0 0.0 90.0 xyz
      dof rx ry rz
   end
   begin
      id 23
      name LeftUpLeg
      direction 0.000000 -1.000000 0.000000
      length 17.039958
      axis 0.0 0.0 0.0 xyz
      dof rx ry rz
   end
   begin
      id 24
      name LeftLeg
      direction 0.000000 -1.000000 0.000000
      length 16.939743
      axis 0.0 0.0 0.0 xyz
      dof rx ry rz
   end
   begin
      id 25
      name LeftFoot
      direction 0.000000 -0.258819 0.965926
      length 5.235044
      axis 15.0 0.0 0.0 xyz
      dof rx ry rz
   end
   begin
      id 26
      name LeftToeBase
      direction 0.000000 0.000000 1.000000
      length 2.952750
      axis 0.0 0.0 0.0 xyz
      dof rx ry rz
   end
   begin
      id 27
      name RightUpLeg
      direction 0.000000 -1.000000 0.000000
      length 17.039958
      axis 0.0 0.0 0.0 xyz
      dof rx ry rz
   end
   begin
      id 28
      name RightLeg
      direction 0.000000 -1.000000 0.000000
      length 16.939743
      axis 0.0 0.0 0.0 xyz
      dof rx ry rz
   end
   begin
      id 29
      name RightFoot
      direction 0.000000 -0.258819 0.965926
      length 5.235044
      axis 15.0 0.0 0.0 xyz
      dof rx ry rz
   end
   begin
      id 30
      name RightToeBase
      direction 0.000000 0.000000 1.000000
      length 2.952750
      axis 0.0 0.0 0.0 xyz
      dof rx ry rz
   end
:hierarchy
   begin
      root Spine_dum LeftUpLeg_dum RightUpLeg_dum
      Spine_dum Spine
      LeftUpLeg_dum LeftUpLeg
      RightUpLeg_dum RightUpLeg
      Spine Spine_dum1 Spine_dum2 Spine_dum3
      Spine_dum1 Head
      Spine_dum2 LeftShoulder
      Spine_dum3 RightShoulder
      LeftShoulder LeftArm
      LeftArm LeftForeArm
      LeftForeArm LeftHand
      LeftHand LeftHand_dum1 LeftHand_dum2
      LeftHand_dum1 LeftHandThumb1
      RightShoulder RightArm
      RightArm RightForeArm
      RightForeArm RightHand
      RightHand RightHand_dum1 RightHand_dum2
      RightHand_dum1 RightHandThumb1
      LeftUpLeg LeftLeg
      LeftLeg LeftFoot
      LeftFoot LeftToeBase
      RightUpLeg RightLeg
      RightLeg RightFoot
      RightFoot RightToeBase
   end

# File created by Blade
# Date/Time:  Thu Jan 15 19:03:33 2015
# Frame Rate: 120.000 fps
#------------------------------------------------------
:FULLY-SPECIFIED
:DEGREES
1844
root -1.929991 35.607342 -8.527229 -190.237579 -2.974907 -177.233231
Spine 5.723475 8.865261 -1.829893
Head 4.860275 -9.349652 14.958013
LeftShoulder -7.059243 15.926361 -1.093653
LeftArm 15.405093 -7.384935 -79.503062
LeftForeArm -0.000000 0.602514 14.059251
LeftHand 3.298283 0.000000 1.717296
LeftHandThumb1 -26.253704 33.147579 0.000000
RightShoulder -21.495653 -8.774438 8.557568
RightArm 2.838689 0.513235 73.462814
RightForeArm -0.000000 -30.730928 27.438324
RightHand -0.098025 0.000000 5.489791
RightHandThumb1 -24.326973 -32.862282 -0.000000
LeftUpLeg 9.583863 14.508198 -6.977724
LeftLeg 3.825537 -0.000000 -0.000000
LeftFoot -17.419879 20.379819 -8.141121
LeftToeBase 17.162586 -0.000000 -0.000000
RightUpLeg -76.414322 3.716163 4.845128
RightLeg 76.692241 -0.000000 -0.000000
RightFoot 43.059462 -22.919608 -17.305750
RightToeBase 10.847562 -0.000000 -0.000000
1845
root -1.927919 35.603857 -8.529255 -190.243071 -2.884144 -177.258361
Spine 5.741069 8.965605 -1.865845
Head 4.794008 -9.365508 15.040207
LeftShoulder -7.064659 15.975324 -1.087245
LeftArm 15.446904 -7.392253 -79.511431
LeftForeArm 0.000000 0.764548 14.020852
LeftHand 3.350698 -0.000000 1.741693
LeftHandThumb1 -26.253704 33.147579 0.000000
RightShoulder -21.508103 -8.753651 8.641411
RightArm 2.858266 0.498028 73.392277
RightForeArm -0.000000 -30.725125 27.456067
RightHand -0.054795 0.000000 5.472470
RightHandThumb1 -24.326973 -32.862282 -0.000000
LeftUpLeg 9.638029 14.554524 -6.997596
LeftLeg 3.734536 -0.000000 -0.000000
LeftFoot -17.395367 20.451108 -8.103380
LeftToeBase 17.074425 -0.000000 -0.000000
RightUpLeg -76.450462 3.776396 4.847252
RightLeg 77.153078 -0.000000 -0.000000
RightFoot 43.347326 -21.929382 -16.044984
RightToeBase 10.927560 -0.000000 -0.000000
1846
root -1.925360 35.601766 -8.530751 -190.238487 -2.791456 -177.284591
Spine 5.743054 9.063142 -1.891080
Head 4.760364 -9.397396 15.083765
LeftShoulder -7.042513 16.000600 -1.106983
LeftArm 15.449048 -7.377607 -79.471820
LeftForeArm -0.000000 0.773476 13.979084
LeftHand 3.352184 -0.000000 1.700622
LeftHandThumb1 -26.253704 33.147579 0.000000
RightShoulder -21.563840 -8.735826 8.708640
RightArm 2.924800 0.420723 73.327966
RightForeArm 0.000000 -30.722441 27.428294
RightHand -0.005987 -0.000000 5.435537
RightHandThumb1 -24.326973 -32.862282 -0.000000
LeftUpLeg 9.680455 14.633769 -7.007453
LeftLeg 3.649147 -0.000000 -0.000000
LeftFoot -17.374820 20.464132 -8.082543
LeftToeBase 17.149432 -0.000000 -0.000000
RightUpLeg -76.490438 3.839046 4.863426
RightLeg 77.559331 -0.000000 -0.000000
RightFoot 43.587358 -20.986094 -14.656306
RightToeBase 12.405658 -0.000000 -0.000000
1847
root -1.921820 35.600791 -8.530529 -190.233690 -2.712101 -177.313668
Spine 5.753677 9.105757 -1.945493
Head 4.723039 -9.371503 15.180139
LeftShoulder -7.080637 16.015628 -1.120600
LeftArm 15.448692 -7.319051 -79.430835
LeftForeArm -0.000000 0.777349 13.970582
LeftHand 3.300127 -0.000000 1.685033
LeftHandThumb1 -26.253704 33.147579 0.000000
RightShoulder -21.539607 -8.664245 8.783656
RightArm 2.911275 0.448309 73.254779
RightForeArm -0.000000 -30.688197 27.448533
RightHand -0.015687 -0.000000 5.522814
RightHandThumb1 -24.326973 -32.862282 -0.000000
LeftUpLeg 9.708909 14.731023 -7.012408
LeftLeg 3.585221 -0.000000 -0.000000
LeftFoot -17.346055 20.437799 -8.079758
LeftToeBase 17.090080 -0.000000 -0.000000
RightUpLeg -76.511303 3.877419 4.896262
RightLeg 77.915017 -0.000000 -0.000000
RightFoot 43.604574 -20.196073 -13.137659
RightToeBase 13.621449 -0.000000 -0.000000
1848
root -1.918472 35.600514 -8.529438 -190.223875 -2.643673 -177.342582
Spine 5.761213 9.161611 -1.997743
Head 4.682433 -9.378222 15.269865
LeftShoulder -7.092458 16.048703 -1.126010
LeftArm 15.490882 -7.288661 -79.403402
LeftForeArm 0.000000 0.833811 13.904504
LeftHand 3.323960 -0.000000 1.678497
LeftHandThumb1 -26.253704 33.147579 0.000000
RightShoulder -21.586465 -8.616383 8.853267
RightArm 2.955412 0.385330 73.203071
RightForeArm 0.000000 -30.728220 27.449763
RightHand -0.060566 0.000000 5.450645
RightHandThumb1 -24.326973 -32.862282 -0.000000
LeftUpLeg 9.727140 14.800209 -7.018795
LeftLeg 3.533940 -0.000000 -0.000000
LeftFoot -17.319790 20.406090 -8.077735
LeftToeBase 17.128903 -0.000000 -0.000000
RightUpLeg -76.523191 3.890419 4.947518
RightLeg 78.233981 -0.000000 -0.000000
RightFoot 43.294602 -19.537077 -11.430713
RightToeBase 14.519312 -0.000000 -0.000000
1849
root -1.915232 35.600058 -8.528055 -190.212524 -2.591558 -177.374788
Spine 5.757932 9.181736 -2.054535
Head 4.671026 -9.379828 15.337170
LeftShoulder -7.092607 16.077901 -1.113954
LeftArm 15.502991 -7.291228 -79.396665
LeftForeArm -0.000000 0.877204 13.861418
LeftHand 3.349939 -0.000000 1.650677
LeftHandThumb1 -26.253704 33.147579 0.000000
RightShoulder -21.611123 -8.572741 8.884857
RightArm 2.993078 0.385221 73.191931
RightForeArm -0.000000 -30.729418 27.440027
RightHand -0.062324 -0.000000 5.402220
RightHandThumb1 -24.326973 -32.862282 -0.000000
LeftUpLeg 9.735966 14.865957 -7.027279
LeftLeg 3.497008 -0.000000 -0.000000
LeftFoot -17.293824 20.350032 -8.090361
LeftToeBase 17.073551 -0.000000 -0.000000
RightUpLeg -76.536450 3.876430 4.999893
RightLeg 78.550820 -0.000000 -0.000000
RightFoot 42.655016 -18.893656 -9.419744
RightToeBase 14.758833 -0.000000 -0.000000
1850
root -1.912219 35.600606 -8.523736 -190.173085 -2.563363 -177.403767
Spine 5.731152 9.162264 -2.117985
Head 4.669142 -9.369482 15.411443
LeftShoulder -7.109941 16.120467 -1.115046
LeftArm 15.533406 -7.231045 -79.371489
LeftForeArm -0.000000 0.698192 13.820409
LeftHand 3.380135 -0.000000 1.741865
LeftHandThumb1 -26.253704 33.147579 0.000000
RightShoulder -21.615559 -8.520317 8.902857
RightArm 3.005369 0.421038 73.197765
RightForeArm 0.000000 -30.707458 27.452883
RightHand -0.056018 0.000000 5.351551
RightHandThumb1 -24.326973 -32.862282 -0.000000
LeftUpLeg 9.701014 14.895840 -7.049522
LeftLeg 3.479670 -0.000000 -0.000000
LeftFoot -17.264410 20.310769 -8.103325
LeftToeBase 17.099803 -0.000000 -0.000000
RightUpLeg -76.564195 3.833798 5.051858
RightLeg 78.836116 -0.000000 -0.000000
RightFoot 41.669126 -18.176314 -7.131190
RightToeBase 15.802728 -0.000000 -0.000000
1851
root -1.910003 35.601997 -8.518929 -190.131031 -2.535791 -177.421109
Spine 5.699848 9.134933 -2.159021
Head 4.675111 -9.353099 15.459588
LeftShoulder -7.109091 16.145504 -1.104337
LeftArm 15.537707 -7.254401 -79.374988
LeftForeArm -0.000000 0.715150 13.779136
LeftHand 3.399993 -0.000000 1.713499
LeftHandThumb1 -26.253704 33.147579 0.000000
RightShoulder -21.610302 -8.479455 8.900202
RightArm 3.017949 0.473412 73.224961
RightForeArm 0.000000 -30.683226 27.467219
RightHand -0.074161 -0.000000 5.235285
RightHandThumb1 -24.326973 -32.862282 -0.000000
LeftUpLeg 9.661953 14.924958 -7.062197
LeftLeg 3.463176 -0.000000 -0.000000
LeftFoot -17.232418 20.258379 -8.127762
LeftToeBase 17.052663 -0.000000 -0.000000
RightUpLeg -76.589775 3.778892 5.113875
RightLeg 79.099393 -0.000000 -0.000000
RightFoot 40.622256 -17.251048 -4.642759
RightToeBase 15.628430 -0.000000 -0.000000
1852
root -1.906929 35.602940 -8.512805 -190.073889 -2.514178 -177.422758
Spine 5.649023 9.084777 -2.183007
Head 4.704744 -9.321063 15.484976
LeftShoulder -7.096296 16.144237 -1.083309
LeftArm 15.505563 -7.315697 -79.390177
LeftForeArm -0.000000 0.749603 13.740224
LeftHand 3.378910 -0.000000 1.661606
LeftHandThumb1 -26.253704 33.147579 0.000000
RightShoulder -21.602559 -8.465286 8.870056
RightArm 3.044827 0.536166 73.287427
RightForeArm 0.000000 -30.676106 27.490205
RightHand -0.048171 -0.000000 5.250910
RightHandThumb1 -24.326973 -32.862282 -0.000000
LeftUpLeg 9.603107 14.952935 -7.065843
LeftLeg 3.447741 -0.000000 -0.000000
LeftFoot -17.192298 20.235216 -8.100221
LeftToeBase 16.999986 -0.000000 -0.000000
RightUpLeg -76.626539 3.714510 5.184930
RightLeg 79.348196 -0.000000 -0.000000
RightFoot 39.320551 -16.179959 -1.932832
RightToeBase 15.677196 -0.000000 -0.000000
